<svg width="1283" height="717" viewBox="0 0 1283 717" fill="none" xmlns="http://www.w3.org/2000/svg">
<g clip-path="url(#clip0_95_73)">
<path d="M1240.78 946.713H1152.84L1058.41 680.476L1057.82 678.807H1058.48L1054.71 668.139L896.661 221.295L889.877 202.114L881.78 220.778L796.789 416.682L933.532 96.6475L936.373 95.3574L1240.78 946.713ZM719.626 946.713H631.678L610.717 887.612L658.741 776.435L719.626 946.713ZM643.677 734.305L595.955 845.991L537.255 680.476L536.663 678.807H537.326L533.553 668.139L375.503 221.295L368.719 202.114L360.621 220.778L275.694 416.532L412.374 96.6475L415.215 95.3564L643.677 734.305ZM1204.06 162.979C1215.86 166.163 1224.91 170.782 1231.51 176.584C1241.43 185.301 1246.7 197.453 1246.7 214.087C1246.7 241.291 1232.91 265.86 1203.08 287.844C1193.26 294.81 1183.3 300.974 1173.19 306.342C1177.26 302.781 1181.24 298.978 1185.14 294.935L1185.14 294.934C1208.23 270.99 1220.71 246.064 1220.71 220.259C1220.71 196.125 1216.68 177.037 1206.39 165.621C1205.63 164.71 1204.85 163.829 1204.06 162.979ZM1215.93 38.7285C1224.08 40.6471 1230.6 43.4246 1235.63 46.9189C1245.28 53.6298 1250.4 63.628 1250.4 78.3057C1250.4 92.4519 1245.11 104.716 1234.01 115.449C1226.21 122.991 1215.46 129.841 1201.52 135.865C1202.79 134.494 1204.03 133.077 1205.24 131.614C1218.82 116.166 1225.65 97.8613 1225.65 77.0713C1225.65 61.4722 1222.81 48.2858 1215.93 38.7285Z" fill="white" stroke="black" stroke-width="16"/>
<mask id="mask0_95_73" style="mask-type:luminance" maskUnits="userSpaceOnUse" x="0" y="0" width="1283" height="974">
<path d="M1283 0H0V974H1283V0Z" fill="white"/>
<path d="M51.8602 954.713H37.043L406.238 90.6495L419.821 84.4776L730.982 954.713H626.027L529.715 683.15H169.163L51.8602 954.713ZM367.961 223.962L174.102 670.806H526.011L367.961 223.962ZM573.019 954.713H558.202L927.397 90.6495L940.979 84.4776L1252.14 954.713H1147.19L1050.87 683.15H690.322L573.019 954.713ZM889.119 223.962L695.261 670.806H1047.17L889.119 223.962ZM1171.97 154.837L1157.15 158.54L1154.68 154.837C1172.79 149.9 1187.6 140.436 1199.13 126.446C1211.48 112.457 1217.65 95.9985 1217.65 77.0714C1217.65 46.6234 1206.13 31.3995 1183.08 31.3995C1163.32 31.3995 1141.92 36.337 1118.87 46.2119L1116.4 42.5089C1139.45 32.6339 1162.5 27.6963 1185.55 27.6963C1234.12 27.6963 1258.4 44.5662 1258.4 78.3058C1258.4 111.222 1233.29 135.499 1183.08 151.134C1230.82 156.072 1254.7 177.056 1254.7 214.087C1254.7 244.535 1239.06 271.28 1207.78 294.322C1176.49 316.54 1143.57 330.941 1108.99 337.525L1107.76 332.587C1134.1 326.004 1157.97 311.603 1179.38 289.384C1201.6 266.343 1212.71 243.3 1212.71 220.259C1212.71 196.394 1208.6 179.936 1200.37 170.884C1192.14 161.009 1182.67 155.66 1171.97 154.837Z" fill="black"/>
</mask>
<g mask="url(#mask0_95_73)">
<path d="M51.8602 954.713V974H64.5443L69.5727 962.359L51.8602 954.713ZM37.043 954.713L19.3006 947.137L7.82248 974H37.043V954.713ZM406.238 90.6495L398.255 73.0911L391.438 76.1889L388.496 83.0734L406.238 90.6495ZM419.821 84.4776L437.988 77.9857L430.929 58.2437L411.837 66.9193L419.821 84.4776ZM730.982 954.713V974H758.367L749.15 948.221L730.982 954.713ZM626.027 954.713L607.843 961.158L612.397 974H626.027V954.713ZM529.715 683.15L547.899 676.705L543.345 663.863H529.715V683.15ZM169.163 683.15V663.863H156.479L151.451 675.504L169.163 683.15ZM367.961 223.962L386.15 217.533L369.789 171.275L350.26 216.288L367.961 223.962ZM174.102 670.806L156.402 663.132L144.705 690.094H174.102V670.806ZM526.011 670.806V690.094H553.296L544.2 664.377L526.011 670.806ZM51.8602 954.713V935.426H37.043V954.713V974H51.8602V954.713ZM37.043 954.713L54.7855 962.289L423.98 98.2255L406.238 90.6495L388.496 83.0734L19.3006 947.137L37.043 954.713ZM406.238 90.6495L414.222 108.208L427.804 102.036L419.821 84.4776L411.837 66.9193L398.255 73.0911L406.238 90.6495ZM419.821 84.4776L401.653 90.9694L712.815 961.205L730.982 954.713L749.15 948.221L437.988 77.9857L419.821 84.4776ZM730.982 954.713V935.426H626.027V954.713V974H730.982V954.713ZM626.027 954.713L644.211 948.268L547.899 676.705L529.715 683.15L511.531 689.595L607.843 961.158L626.027 954.713ZM529.715 683.15V663.863H169.163V683.15V702.437H529.715V683.15ZM169.163 683.15L151.451 675.504L34.1479 947.067L51.8602 954.713L69.5727 962.359L186.875 690.797L169.163 683.15ZM367.961 223.962L350.26 216.288L156.402 663.132L174.102 670.806L191.803 678.481L385.661 231.637L367.961 223.962ZM174.102 670.806V690.094H526.011V670.806V651.519H174.102V670.806ZM526.011 670.806L544.2 664.377L386.15 217.533L367.961 223.962L349.771 230.392L507.821 677.236L526.011 670.806ZM573.019 954.713V974H585.703L590.731 962.359L573.019 954.713ZM558.202 954.713L540.459 947.137L528.981 974H558.202V954.713ZM927.397 90.6495L919.413 73.0911L912.596 76.1889L909.655 83.0734L927.397 90.6495ZM940.979 84.4776L959.147 77.9857L952.088 58.2437L932.996 66.9193L940.979 84.4776ZM1252.14 954.713V974H1279.53L1270.31 948.221L1252.14 954.713ZM1147.19 954.713L1129 961.158L1133.55 974H1147.19V954.713ZM1050.87 683.15L1069.06 676.705L1064.5 663.863H1050.87V683.15ZM690.322 683.15V663.863H677.637L672.609 675.504L690.322 683.15ZM889.119 223.962L907.309 217.533L890.947 171.275L871.418 216.288L889.119 223.962ZM695.261 670.806L677.56 663.132L665.863 690.094H695.261V670.806ZM1047.17 670.806V690.094H1074.46L1065.36 664.377L1047.17 670.806ZM573.019 954.713V935.426H558.202V954.713V974H573.019V954.713ZM558.202 954.713L575.944 962.289L945.139 98.2255L927.397 90.6495L909.655 83.0734L540.459 947.137L558.202 954.713ZM927.397 90.6495L935.38 108.208L948.963 102.036L940.979 84.4776L932.996 66.9193L919.413 73.0911L927.397 90.6495ZM940.979 84.4776L922.812 90.9694L1233.98 961.205L1252.14 954.713L1270.31 948.221L959.147 77.9857L940.979 84.4776ZM1252.14 954.713V935.426H1147.19V954.713V974H1252.14V954.713ZM1147.19 954.713L1165.37 948.268L1069.06 676.705L1050.87 683.15L1032.69 689.595L1129 961.158L1147.19 954.713ZM1050.87 683.15V663.863H690.322V683.15V702.437H1050.87V683.15ZM690.322 683.15L672.609 675.504L555.307 947.067L573.019 954.713L590.731 962.359L708.034 690.797L690.322 683.15ZM889.119 223.962L871.418 216.288L677.56 663.132L695.261 670.806L712.961 678.481L906.82 231.637L889.119 223.962ZM695.261 670.806V690.094H1047.17V670.806V651.519H695.261V670.806ZM1047.17 670.806L1065.36 664.377L907.309 217.533L889.119 223.962L870.929 230.392L1028.98 677.236L1047.17 670.806ZM1171.97 154.837L1173.44 135.607L1170.33 135.367L1167.29 136.126L1171.97 154.837ZM1157.15 158.54L1141.1 169.239L1148.64 180.548L1161.83 177.252L1157.15 158.54ZM1154.68 154.837L1149.61 136.23L1123.78 143.271L1138.63 165.536L1154.68 154.837ZM1199.13 126.446L1184.66 113.686L1184.45 113.932L1184.24 114.186L1199.13 126.446ZM1118.87 46.2119L1102.82 56.9106L1111.72 70.2593L1126.47 63.9396L1118.87 46.2119ZM1116.4 42.5089L1108.8 24.7812L1087.48 33.9149L1100.35 53.2075L1116.4 42.5089ZM1183.08 151.134L1177.34 132.72L1181.09 170.319L1183.08 151.134ZM1207.78 294.322L1218.95 310.044L1219.08 309.948L1219.22 309.849L1207.78 294.322ZM1108.99 337.525L1090.28 342.203L1094.7 359.88L1112.6 356.471L1108.99 337.525ZM1107.76 332.587L1103.08 313.876L1084.37 318.554L1089.05 337.265L1107.76 332.587ZM1179.38 289.384L1165.48 275.996L1165.48 276.006L1179.38 289.384ZM1200.37 170.884L1185.55 183.232L1185.81 183.551L1186.09 183.857L1200.37 170.884ZM1171.97 154.837L1167.29 136.126L1152.47 139.829L1157.15 158.54L1161.83 177.252L1176.65 173.549L1171.97 154.837ZM1157.15 158.54L1173.2 147.842L1170.73 144.139L1154.68 154.837L1138.63 165.536L1141.1 169.239L1157.15 158.54ZM1154.68 154.837L1159.75 173.444C1181.58 167.497 1199.87 155.891 1214.03 138.707L1199.13 126.446L1184.24 114.186C1175.34 124.982 1164.01 132.302 1149.61 136.23L1154.68 154.837ZM1199.13 126.446L1213.6 139.207C1229.1 121.638 1236.95 100.623 1236.95 77.0714H1217.65H1198.36C1198.36 91.3742 1193.86 103.276 1184.66 113.686L1199.13 126.446ZM1217.65 77.0714H1236.95C1236.95 59.9656 1233.8 43.611 1224.4 31.1788C1214.22 17.7326 1199.25 12.1124 1183.08 12.1124V31.3995V50.6866C1189.96 50.6866 1192.28 52.6782 1193.62 54.4561C1195.74 57.2479 1198.36 63.7293 1198.36 77.0714H1217.65ZM1183.08 31.3995V12.1124C1160.11 12.1124 1136.1 17.8471 1111.27 28.4842L1118.87 46.2119L1126.47 63.9396C1147.74 54.8268 1166.54 50.6866 1183.08 50.6866V31.3995ZM1118.87 46.2119L1134.92 35.5132L1132.45 31.8102L1116.4 42.5089L1100.35 53.2075L1102.82 56.9106L1118.87 46.2119ZM1116.4 42.5089L1124 60.2365C1144.86 51.2991 1165.34 46.9834 1185.55 46.9834V27.6963V8.40918C1159.67 8.40918 1134.04 13.9686 1108.8 24.7812L1116.4 42.5089ZM1185.55 27.6963V46.9834C1208.19 46.9834 1221.74 51.0238 1229.18 56.187C1235.34 60.4649 1239.11 66.7192 1239.11 78.3058H1258.4H1277.69C1277.69 56.1526 1269.32 37.1022 1251.2 24.5103C1234.34 12.8037 1211.47 8.40918 1185.55 8.40918V27.6963ZM1258.4 78.3058H1239.11C1239.11 89.1931 1235.21 98.5862 1226.16 107.337C1216.59 116.587 1200.9 125.384 1177.34 132.72L1183.08 151.134L1188.82 169.548C1215.47 161.249 1237.45 150.09 1252.98 135.064C1269.04 119.539 1277.69 100.336 1277.69 78.3058H1258.4ZM1183.08 151.134L1181.09 170.319C1202.89 172.574 1216.3 178.25 1224.05 185.059C1231.12 191.271 1235.4 200.106 1235.4 214.087H1254.7H1273.99C1273.99 191.037 1266.34 170.864 1249.54 156.092C1233.41 141.917 1211.01 134.632 1185.07 131.949L1183.08 151.134ZM1254.7 214.087H1235.4C1235.4 236.752 1224.18 258.281 1196.33 278.795L1207.78 294.322L1219.22 309.849C1253.93 284.28 1273.99 252.317 1273.99 214.087H1254.7ZM1207.78 294.322L1196.6 278.599C1167.38 299.359 1137 312.56 1105.39 318.578L1108.99 337.525L1112.6 356.471C1150.14 349.324 1185.62 333.721 1218.95 310.044L1207.78 294.322ZM1108.99 337.525L1127.71 332.847L1126.47 327.909L1107.76 332.587L1089.05 337.265L1090.28 342.203L1108.99 337.525ZM1107.76 332.587L1112.44 351.299C1142.76 343.723 1169.71 327.224 1193.28 302.763L1179.38 289.384L1165.48 276.006C1146.24 295.982 1125.45 308.285 1103.08 313.876L1107.76 332.587ZM1179.38 289.384L1193.27 302.772C1217.6 277.551 1232.01 249.966 1232.01 220.259H1212.71H1193.42C1193.42 236.636 1185.61 255.133 1165.48 275.996L1179.38 289.384ZM1212.71 220.259H1232.01C1232.01 195.551 1228.02 172.63 1214.64 157.911L1200.37 170.884L1186.09 183.857C1189.17 187.242 1193.42 197.237 1193.42 220.259H1212.71ZM1200.37 170.884L1215.18 158.536C1204.33 145.513 1190.35 136.907 1173.44 135.607L1171.97 154.837L1170.49 174.067C1174.99 174.414 1179.94 176.505 1185.55 183.232L1200.37 170.884Z" fill="white"/>
</g>
</g>
<defs>
<clipPath id="clip0_95_73">
<rect width="1283" height="974" fill="white"/>
</clipPath>
</defs>
</svg>
