<svg width="128" height="97" viewBox="0 0 128 97" fill="none" xmlns="http://www.w3.org/2000/svg">
<path d="M2.376 97H0.84L39.112 7.39999L40.52 6.75999L72.776 97H61.896L51.912 68.84H14.536L2.376 97ZM35.144 21.224L15.048 67.56H51.528L35.144 21.224ZM56.401 97H54.865L93.137 7.39999L94.545 6.75999L126.801 97H115.921L105.937 68.84H68.561L56.401 97ZM89.169 21.224L69.073 67.56H105.553L89.169 21.224ZM118.49 14.056L116.954 14.44L116.698 14.056C118.575 13.544 120.111 12.5627 121.306 11.112C122.586 9.66133 123.226 7.95466 123.226 5.992C123.226 2.83466 122.031 1.256 119.642 1.256C117.594 1.256 115.375 1.768 112.986 2.79199L112.73 2.408C115.119 1.384 117.509 0.871994 119.898 0.871994C124.933 0.871994 127.45 2.62133 127.45 6.12C127.45 9.53333 124.847 12.0507 119.642 13.672C124.591 14.184 127.066 16.36 127.066 20.2C127.066 23.3573 125.445 26.1307 122.202 28.52C118.959 30.824 115.546 32.3173 111.962 33L111.834 32.488C114.565 31.8053 117.039 30.312 119.258 28.008C121.562 25.6187 122.714 23.2293 122.714 20.84C122.714 18.3653 122.287 16.6587 121.434 15.72C120.581 14.696 119.599 14.1413 118.49 14.056Z" fill="black"/>
</svg>
